<svg width="400" height="400" xmlns="http://www.w3.org/2000/svg">
 <!-- Created with Method Draw - http://github.com/duopixel/Method-Draw/ -->

 <g>
  <title>background</title>
  <rect fill="none" id="canvas_background" height="402" width="402" y="-1" x="-1"/>
  <g display="none" id="canvasGrid">
   <rect fill="url(#gridpattern)" stroke-width="0" y="0" x="0" height="100%" width="100%" id="svg_2"/>
  </g>
 </g>
 <g>
  <title>Layer 1</title>
  <path id="svg_5" d="m309,193.5" opacity="0.5" stroke-opacity="null" stroke-width="2" stroke="#000" fill="#56aaff"/>
  <path transform="rotate(33, 232.103, 173.654)" id="svg_8" d="m231.6356,70.13778l-72.02612,64.07321l63.60749,0.93541l-0.93541,98.21745c0.93539,0.46967 -27.43885,56.59383 -121.29053,-6.07808l2.80617,12.93785c57.68252,38.50895 67.97318,34.45578 132.82703,18.55403c35.12963,17.66855 80.23677,31.59552 124.0967,-2.49429l2.49438,-19.17787c-49.88811,56.90517 -106.63576,19.1774 -115.67785,-5.14279l1.87082,-98.68712c0.93539,0.46967 52.38262,0.46967 51.44723,0l-69.21993,-63.13782l0.00002,0.00002z" stroke-width="4" stroke="#000" fill="#56aaff"/>
  <!-- Created with Method Draw - http://github.com/duopixel/Method-Draw/ -->
  <!-- Created with Method Draw - http://github.com/duopixel/Method-Draw/ -->
  <g id="svg_45">
   <g transform="matrix(0.987562, 0, 0, 0.985074, -393.038, -391.045)" id="svg_43">
    <title>background</title>
    <rect fill="none" id="svg_41" height="402" width="402" y="360.42487" x="362.54723"/>
    <g display="none" id="svg_39">
     <rect fill="url(#gridpattern)" stroke-width="0" y="361.42487" x="363.54723" height="400" width="400" id="svg_40"/>
    </g>
   </g>
   <g transform="matrix(0.987562, 0, 0, 0.985074, -393.038, -391.045)" id="svg_44">
    <title>Layer 1</title>
    <!-- Created with Method Draw - http://github.com/duopixel/Method-Draw/ -->
    <g id="svg_32">
     <g id="svg_35" transform="rotate(-5.11937, 563.547, 561.425) matrix(0.333333, 0, 0, 0.333333, 0, 0)">
      <title>background</title>
      <rect x="1489.64345" y="1483.27639" width="402" height="402" id="svg_38" fill="none"/>
      <g id="svg_36" display="none">
       <rect id="svg_37" width="400" height="400" x="1490.64345" y="1484.27639" stroke-width="0" fill="url(#gridpattern)"/>
      </g>
     </g>
     <g id="svg_33" transform="matrix(1.2807, 0, 0, 1.2807, -532.422, -604.422)">
      <title>Layer 1</title>
      <ellipse fill="#2a51ed" stroke="#000" stroke-width="2" cx="855.75803" cy="910.32006" id="svg_34" rx="35" ry="35"/>
     </g>
    </g>
   </g>
  </g>
 </g>
</svg>