<svg width="400" height="400" xmlns="http://www.w3.org/2000/svg">
 <!-- Created with Method Draw - http://github.com/duopixel/Method-Draw/ -->

 <g>
  <title>background</title>
  <rect x="-1" y="-1" width="402" height="402" id="canvas_background" fill="none"/>
  <g id="canvasGrid" display="none">
   <rect id="svg_2" width="100%" height="100%" x="0" y="0" stroke-width="0" fill="url(#gridpattern)"/>
  </g>
 </g>
 <g>
  <title>Layer 1</title>
  <path fill="#56aaff" stroke="#000" stroke-width="2" stroke-opacity="null" opacity="0.5" d="m309,193.5" id="svg_5"/>
  <path fill="#56aaff" stroke="#000" stroke-width="2" stroke-opacity="null" fill-opacity="null" d="m231.6356,70.13778l-72.02612,64.07321l63.60749,0.93541l-0.93541,98.21745c0.93539,0.46967 -27.43885,56.59383 -121.29053,-6.07808l2.80617,12.93785c57.68252,38.50895 67.97318,34.45578 132.82703,18.55403c35.12963,17.66855 80.23677,31.59552 124.0967,-2.49429l2.49438,-19.17787c-49.88811,56.90517 -106.63576,19.1774 -115.67785,-5.14279l1.87082,-98.68712c0.93539,0.46967 52.38262,0.46967 51.44723,0l-69.21993,-63.13782l0.00002,0.00002z" id="svg_8" transform="rotate(33, 232.103, 173.654)"/>
 </g>
</svg>