<svg width="400" height="400" xmlns="http://www.w3.org/2000/svg">
 <!-- Created with Method Draw - http://github.com/duopixel/Method-Draw/ -->

 <g>
  <title>background</title>
  <rect x="-1" y="-1" width="402" height="402" id="canvas_background" fill="none"/>
  <g id="canvasGrid" display="none">
   <rect id="svg_2" width="100%" height="100%" x="0" y="0" stroke-width="0" fill="url(#gridpattern)"/>
  </g>
 </g>
 <g>
  <title>Layer 1</title>
  <g id="svg_6">
   <rect id="svg_3" height="32.73846" width="266.00001" y="223.29489" x="68" stroke-opacity="null" stroke-width="0" stroke="#000" fill="#000000"/>
   <rect id="svg_4" height="58.65641" width="28.64615" y="193.96665" x="68" stroke-opacity="null" stroke-width="0" stroke="#000" fill="#000000"/>
   <rect id="svg_5" height="58.65641" width="28.64615" y="193.96669" x="305.1265" stroke-opacity="null" stroke-width="0" stroke="#000" fill="#000000"/>
  </g>
  <!-- Created with Method Draw - http://github.com/duopixel/Method-Draw/ -->
  <g id="svg_31">
   <g transform="matrix(0.992537, 0, 0, 0.992537, -396.023, -395.023)" id="svg_29">
    <title>background</title>
    <rect fill="none" id="svg_27" height="402" width="402" y="373.81266" x="395.97808"/>
    <g display="none" id="svg_25">
     <rect fill="url(#gridpattern)" stroke-width="0" y="374.81266" x="396.97808" height="400" width="400" id="svg_26"/>
    </g>
   </g>
   <g transform="matrix(0.992537, 0, 0, 0.992537, -396.023, -395.023)" id="svg_30">
    <title>Layer 1</title>
    <!-- Created with Method Draw - http://github.com/duopixel/Method-Draw/ -->
    <g id="svg_18">
     <g id="svg_21" transform="rotate(-5.11937, 596.978, 574.813) matrix(0.333333, 0, 0, 0.333333, 0, 0)">
      <title>background</title>
      <rect x="1589.93613" y="1523.4398" width="402" height="402" id="svg_24" fill="none"/>
      <g id="svg_22" display="none">
       <rect id="svg_23" width="400" height="400" x="1590.93613" y="1524.4398" stroke-width="0" fill="url(#gridpattern)"/>
      </g>
     </g>
     <g id="svg_19" transform="matrix(1.2807, 0, 0, 1.2807, -532.422, -604.422)">
      <title>Layer 1</title>
      <ellipse fill="#2a51ed" stroke="#000" stroke-width="2" cx="881.8616" cy="920.77353" id="svg_20" rx="35" ry="35"/>
     </g>
    </g>
   </g>
  </g>
 </g>
</svg>