<svg width="399.99999999999994" height="399.99999999999994" xmlns="http://www.w3.org/2000/svg">
 <!-- Created with Method Draw - http://github.com/duopixel/Method-Draw/ -->

 <g>
  <title>background</title>
  <rect x="-1" y="-1" width="402" height="402" id="canvas_background" fill="none"/>
  <g id="canvasGrid" display="none">
   <rect id="svg_2" width="100%" height="100%" x="0" y="0" stroke-width="0" fill="url(#gridpattern)"/>
  </g>
 </g>
 <g>
  <title>Layer 1</title>
  <path fill="#00bf00" stroke="#000" stroke-width="2" stroke-opacity="null" d="m74.1186,132.42108c6.37135,-3.22649 138.79719,109.06257 176.63009,105.09033c37.8329,-3.97224 77.78874,-67.32963 78.5225,-55.39681c0.73376,11.93282 3.96518,37.27122 -2.98797,44.22141c-6.95315,6.95019 -44.9951,38.01883 -74.2964,41.23548c-29.30131,3.21667 -172.06968,-97.14208 -178.11413,-102.60867c-6.04444,-5.46659 -6.12545,-29.31526 0.24589,-32.54175l0.00003,0.00001l-0.00001,0z" id="svg_7"/>
  <!-- Created with Method Draw - http://github.com/duopixel/Method-Draw/ -->
  <!-- Created with Method Draw - http://github.com/duopixel/Method-Draw/ -->
  <g id="svg_16">
   <g transform="matrix(0.990049, 0, 0, 0.992537, -395.03, -395.023)" id="svg_14">
    <title>background</title>
    <rect fill="none" id="svg_12" height="402" width="402" y="374.82018" x="448.49312"/>
    <g display="none" id="svg_10">
     <rect fill="url(#gridpattern)" stroke-width="0" y="375.82018" x="449.49312" height="400" width="400" id="svg_11"/>
    </g>
   </g>
   <g transform="matrix(0.990049, 0, 0, 0.992537, -395.03, -395.023)" id="svg_15">
    <title>Layer 1</title>
    <ellipse ry="48.5" rx="48.5" id="svg_9" cy="575.82019" cx="649.49312" stroke-width="2" stroke="#000" fill="#ff0000"/>
   </g>
  </g>
 </g>
</svg>